<mxfile host="app.diagrams.net" modified="2022-12-03T03:03:47.215Z" agent="5.0 (Macintosh; Intel Mac OS X 10_15_7) AppleWebKit/537.36 (KHTML, like Gecko) Chrome/107.0.0.0 Safari/537.36" etag="__JJkD9q875fVjVh3IGf" version="20.5.3" type="github">
  <diagram id="sGaybPrjeKwVfM1cPBCv" name="第 1 页">
    <mxGraphModel dx="1426" dy="794" grid="1" gridSize="10" guides="1" tooltips="1" connect="1" arrows="1" fold="1" page="1" pageScale="1" pageWidth="827" pageHeight="1169" math="0" shadow="0">
      <root>
        <mxCell id="0" />
        <mxCell id="1" parent="0" />
        <mxCell id="pFBMmngF97dWfKuBdkZO-22" style="edgeStyle=orthogonalEdgeStyle;rounded=0;orthogonalLoop=1;jettySize=auto;html=1;exitX=1;exitY=0.5;exitDx=0;exitDy=0;entryX=0;entryY=0.5;entryDx=0;entryDy=0;fontSize=16;" edge="1" parent="1" source="pFBMmngF97dWfKuBdkZO-5" target="pFBMmngF97dWfKuBdkZO-9">
          <mxGeometry relative="1" as="geometry" />
        </mxCell>
        <mxCell id="pFBMmngF97dWfKuBdkZO-5" value="" style="rounded=1;whiteSpace=wrap;html=1;fillColor=#ffe6cc;strokeColor=#d79b00;" vertex="1" parent="1">
          <mxGeometry x="20" y="420" width="180" height="90" as="geometry" />
        </mxCell>
        <mxCell id="pFBMmngF97dWfKuBdkZO-6" value="Unlabeled (upcoming log)" style="rounded=0;whiteSpace=wrap;html=1;fillColor=#f8cecc;strokeColor=#b85450;" vertex="1" parent="1">
          <mxGeometry x="35" y="450" width="155" height="50" as="geometry" />
        </mxCell>
        <mxCell id="pFBMmngF97dWfKuBdkZO-8" value="Test Data Set" style="text;html=1;resizable=0;autosize=1;align=center;verticalAlign=middle;points=[];fillColor=none;strokeColor=none;rounded=0;" vertex="1" parent="1">
          <mxGeometry x="27.5" y="420" width="100" height="30" as="geometry" />
        </mxCell>
        <mxCell id="pFBMmngF97dWfKuBdkZO-12" value="" style="group" vertex="1" connectable="0" parent="1">
          <mxGeometry x="260" y="360" width="160" height="60" as="geometry" />
        </mxCell>
        <mxCell id="pFBMmngF97dWfKuBdkZO-9" value="" style="rounded=0;whiteSpace=wrap;html=1;fillColor=#e1d5e7;strokeColor=#9673a6;" vertex="1" parent="pFBMmngF97dWfKuBdkZO-12">
          <mxGeometry width="160" height="60" as="geometry" />
        </mxCell>
        <mxCell id="pFBMmngF97dWfKuBdkZO-10" value="" style="sketch=0;outlineConnect=0;fontColor=#232F3E;gradientColor=none;fillColor=#232F3D;strokeColor=none;dashed=0;verticalLabelPosition=bottom;verticalAlign=top;align=center;html=1;fontSize=12;fontStyle=0;aspect=fixed;pointerEvents=1;shape=mxgraph.aws4.gear;" vertex="1" parent="pFBMmngF97dWfKuBdkZO-12">
          <mxGeometry x="119" y="15" width="30" height="30" as="geometry" />
        </mxCell>
        <mxCell id="pFBMmngF97dWfKuBdkZO-11" value="&lt;font style=&quot;font-size: 16px;&quot;&gt;Log Parser&lt;/font&gt;" style="text;html=1;resizable=0;autosize=1;align=center;verticalAlign=middle;points=[];fillColor=none;strokeColor=none;rounded=0;" vertex="1" parent="pFBMmngF97dWfKuBdkZO-12">
          <mxGeometry x="14" y="15" width="100" height="30" as="geometry" />
        </mxCell>
        <mxCell id="pFBMmngF97dWfKuBdkZO-13" value="" style="group" vertex="1" connectable="0" parent="1">
          <mxGeometry x="20" y="290" width="180" height="80" as="geometry" />
        </mxCell>
        <mxCell id="pFBMmngF97dWfKuBdkZO-1" value="" style="rounded=1;whiteSpace=wrap;html=1;fillColor=#ffe6cc;strokeColor=#d79b00;" vertex="1" parent="pFBMmngF97dWfKuBdkZO-13">
          <mxGeometry width="180" height="80" as="geometry" />
        </mxCell>
        <mxCell id="pFBMmngF97dWfKuBdkZO-2" value="Unlabeled" style="rounded=0;whiteSpace=wrap;html=1;fillColor=#f8cecc;strokeColor=#b85450;" vertex="1" parent="pFBMmngF97dWfKuBdkZO-13">
          <mxGeometry x="15" y="30" width="85" height="40" as="geometry" />
        </mxCell>
        <mxCell id="pFBMmngF97dWfKuBdkZO-3" value="Labeled" style="rounded=0;whiteSpace=wrap;html=1;fillColor=#dae8fc;strokeColor=#6c8ebf;" vertex="1" parent="pFBMmngF97dWfKuBdkZO-13">
          <mxGeometry x="110" y="30" width="50" height="40" as="geometry" />
        </mxCell>
        <mxCell id="pFBMmngF97dWfKuBdkZO-4" value="Train Data Set" style="text;html=1;resizable=0;autosize=1;align=center;verticalAlign=middle;points=[];fillColor=none;strokeColor=none;rounded=0;" vertex="1" parent="pFBMmngF97dWfKuBdkZO-13">
          <mxGeometry x="7.5" width="100" height="30" as="geometry" />
        </mxCell>
        <mxCell id="pFBMmngF97dWfKuBdkZO-14" value="" style="group;fillColor=#d5e8d4;strokeColor=#82b366;" vertex="1" connectable="0" parent="1">
          <mxGeometry x="500" y="360" width="160" height="60" as="geometry" />
        </mxCell>
        <mxCell id="pFBMmngF97dWfKuBdkZO-15" value="" style="rounded=0;whiteSpace=wrap;html=1;fillColor=#d5e8d4;strokeColor=#82b366;" vertex="1" parent="pFBMmngF97dWfKuBdkZO-14">
          <mxGeometry width="160" height="60" as="geometry" />
        </mxCell>
        <mxCell id="pFBMmngF97dWfKuBdkZO-17" value="&lt;font style=&quot;font-size: 16px;&quot;&gt;Embedding&lt;/font&gt;" style="text;html=1;resizable=0;autosize=1;align=center;verticalAlign=middle;points=[];fillColor=none;strokeColor=none;rounded=0;" vertex="1" parent="pFBMmngF97dWfKuBdkZO-14">
          <mxGeometry x="14" y="15" width="100" height="30" as="geometry" />
        </mxCell>
        <mxCell id="pFBMmngF97dWfKuBdkZO-18" value="" style="sketch=0;outlineConnect=0;fontColor=#232F3E;gradientColor=none;fillColor=#330000;strokeColor=none;dashed=0;verticalLabelPosition=bottom;verticalAlign=top;align=center;html=1;fontSize=12;fontStyle=0;aspect=fixed;pointerEvents=1;shape=mxgraph.aws4.msk_amazon_msk_connect;" vertex="1" parent="pFBMmngF97dWfKuBdkZO-14">
          <mxGeometry x="118" y="15" width="30.39" height="30" as="geometry" />
        </mxCell>
        <mxCell id="pFBMmngF97dWfKuBdkZO-19" style="edgeStyle=orthogonalEdgeStyle;rounded=0;orthogonalLoop=1;jettySize=auto;html=1;exitX=1;exitY=0.5;exitDx=0;exitDy=0;entryX=0;entryY=0.5;entryDx=0;entryDy=0;fontSize=16;" edge="1" parent="1" source="pFBMmngF97dWfKuBdkZO-1" target="pFBMmngF97dWfKuBdkZO-9">
          <mxGeometry relative="1" as="geometry" />
        </mxCell>
        <mxCell id="pFBMmngF97dWfKuBdkZO-23" style="edgeStyle=orthogonalEdgeStyle;rounded=0;orthogonalLoop=1;jettySize=auto;html=1;exitX=1;exitY=0.5;exitDx=0;exitDy=0;entryX=0;entryY=0.5;entryDx=0;entryDy=0;fontSize=16;" edge="1" parent="1" source="pFBMmngF97dWfKuBdkZO-9" target="pFBMmngF97dWfKuBdkZO-15">
          <mxGeometry relative="1" as="geometry" />
        </mxCell>
        <mxCell id="pFBMmngF97dWfKuBdkZO-24" value="log&lt;br&gt;template" style="edgeLabel;html=1;align=center;verticalAlign=middle;resizable=0;points=[];fontSize=9;" vertex="1" connectable="0" parent="pFBMmngF97dWfKuBdkZO-23">
          <mxGeometry x="0.1667" y="-1" relative="1" as="geometry">
            <mxPoint x="-13" y="-1" as="offset" />
          </mxGeometry>
        </mxCell>
        <mxCell id="pFBMmngF97dWfKuBdkZO-25" value="&lt;b&gt;&lt;font style=&quot;font-size: 16px;&quot;&gt;[...]&lt;/font&gt;&lt;/b&gt;" style="text;html=1;resizable=0;autosize=1;align=center;verticalAlign=middle;points=[];fillColor=none;strokeColor=none;rounded=0;fontSize=9;" vertex="1" parent="1">
          <mxGeometry x="700" y="330" width="50" height="30" as="geometry" />
        </mxCell>
        <mxCell id="pFBMmngF97dWfKuBdkZO-26" value="&lt;b&gt;&lt;font style=&quot;font-size: 16px;&quot;&gt;[...]&lt;/font&gt;&lt;/b&gt;" style="text;html=1;resizable=0;autosize=1;align=center;verticalAlign=middle;points=[];fillColor=none;strokeColor=none;rounded=0;fontSize=9;" vertex="1" parent="1">
          <mxGeometry x="700" y="360" width="50" height="30" as="geometry" />
        </mxCell>
        <mxCell id="pFBMmngF97dWfKuBdkZO-27" value="&lt;b&gt;&lt;font style=&quot;font-size: 16px;&quot;&gt;[...]&lt;/font&gt;&lt;/b&gt;" style="text;html=1;resizable=0;autosize=1;align=center;verticalAlign=middle;points=[];fillColor=none;strokeColor=none;rounded=0;fontSize=9;" vertex="1" parent="1">
          <mxGeometry x="700" y="390" width="50" height="30" as="geometry" />
        </mxCell>
        <mxCell id="pFBMmngF97dWfKuBdkZO-28" value="&lt;b&gt;&lt;font style=&quot;font-size: 16px;&quot;&gt;[...]&lt;/font&gt;&lt;/b&gt;" style="text;html=1;resizable=0;autosize=1;align=center;verticalAlign=middle;points=[];fillColor=none;strokeColor=none;rounded=0;fontSize=9;" vertex="1" parent="1">
          <mxGeometry x="700" y="420" width="50" height="30" as="geometry" />
        </mxCell>
        <mxCell id="pFBMmngF97dWfKuBdkZO-30" style="edgeStyle=orthogonalEdgeStyle;rounded=0;orthogonalLoop=1;jettySize=auto;html=1;exitX=1;exitY=0.5;exitDx=0;exitDy=0;fontSize=16;" edge="1" parent="1" source="pFBMmngF97dWfKuBdkZO-15">
          <mxGeometry relative="1" as="geometry">
            <mxPoint x="700" y="390" as="targetPoint" />
          </mxGeometry>
        </mxCell>
        <mxCell id="pFBMmngF97dWfKuBdkZO-31" value="log vectors" style="text;html=1;resizable=0;autosize=1;align=center;verticalAlign=middle;points=[];fillColor=none;strokeColor=none;rounded=0;fontSize=12;fontStyle=0" vertex="1" parent="1">
          <mxGeometry x="685" y="310" width="80" height="30" as="geometry" />
        </mxCell>
      </root>
    </mxGraphModel>
  </diagram>
</mxfile>
